<svg xmlns="http://www.w3.org/2000/svg" xmlns:xlink="http://www.w3.org/1999/xlink" width="96" zoomAndPan="magnify" viewBox="0 0 72 30.000001" height="40" preserveAspectRatio="xMidYMid meet" version="1.0"><defs><g/></defs><g fill="#ffffff" fill-opacity="1"><g transform="translate(2.802915, 19.794873)"><g><path d="M 12.765625 0.625 L 6.984375 0.625 L 6.375 -1.671875 C 6.300781 -1.941406 6.207031 -2.304688 6.09375 -2.765625 C 5.988281 -3.234375 5.867188 -3.738281 5.734375 -4.28125 C 5.609375 -4.832031 5.476562 -5.375 5.34375 -5.90625 C 5.363281 -5.570312 5.382812 -5.195312 5.40625 -4.78125 C 5.4375 -4.375 5.460938 -3.960938 5.484375 -3.546875 C 5.515625 -3.140625 5.535156 -2.765625 5.546875 -2.421875 C 5.566406 -2.085938 5.578125 -1.820312 5.578125 -1.625 L 5.578125 0.625 L 0.765625 0.625 L 0.765625 -12.3125 L 6.578125 -12.3125 L 7.171875 -10.015625 C 7.273438 -9.640625 7.382812 -9.207031 7.5 -8.71875 C 7.625 -8.226562 7.75 -7.726562 7.875 -7.21875 C 8.007812 -6.707031 8.125 -6.226562 8.21875 -5.78125 C 8.207031 -6.113281 8.1875 -6.488281 8.15625 -6.90625 C 8.125 -7.332031 8.09375 -7.757812 8.0625 -8.1875 C 8.03125 -8.625 8.003906 -9.023438 7.984375 -9.390625 C 7.960938 -9.753906 7.953125 -10.035156 7.953125 -10.234375 L 7.953125 -12.3125 L 12.765625 -12.3125 Z M 12.765625 0.625 "/></g></g></g><g fill="#ffffff" fill-opacity="1"><g transform="translate(16.327423, 19.794873)"><g><path d="M 13.734375 0.625 L 8.4375 0.625 L 8.046875 -1.125 L 5.578125 -1.125 L 5.1875 0.625 L 0 0.625 L 3.703125 -12.3125 L 10.03125 -12.3125 Z M 7.390625 -5.03125 L 6.921875 -7.875 L 6.78125 -7.875 L 6.296875 -5.03125 Z M 7.390625 -5.03125 "/></g></g></g><g fill="#ffffff" fill-opacity="1"><g transform="translate(30.053327, 19.794873)"><g><path d="M 12.765625 0.625 L 6.984375 0.625 L 6.375 -1.671875 C 6.300781 -1.941406 6.207031 -2.304688 6.09375 -2.765625 C 5.988281 -3.234375 5.867188 -3.738281 5.734375 -4.28125 C 5.609375 -4.832031 5.476562 -5.375 5.34375 -5.90625 C 5.363281 -5.570312 5.382812 -5.195312 5.40625 -4.78125 C 5.4375 -4.375 5.460938 -3.960938 5.484375 -3.546875 C 5.515625 -3.140625 5.535156 -2.765625 5.546875 -2.421875 C 5.566406 -2.085938 5.578125 -1.820312 5.578125 -1.625 L 5.578125 0.625 L 0.765625 0.625 L 0.765625 -12.3125 L 6.578125 -12.3125 L 7.171875 -10.015625 C 7.273438 -9.640625 7.382812 -9.207031 7.5 -8.71875 C 7.625 -8.226562 7.75 -7.726562 7.875 -7.21875 C 8.007812 -6.707031 8.125 -6.226562 8.21875 -5.78125 C 8.207031 -6.113281 8.1875 -6.488281 8.15625 -6.90625 C 8.125 -7.332031 8.09375 -7.757812 8.0625 -8.1875 C 8.03125 -8.625 8.003906 -9.023438 7.984375 -9.390625 C 7.960938 -9.753906 7.953125 -10.035156 7.953125 -10.234375 L 7.953125 -12.3125 L 12.765625 -12.3125 Z M 12.765625 0.625 "/></g></g></g><g fill="#ffffff" fill-opacity="1"><g transform="translate(43.577835, 19.794873)"><g><path d="M 6.9375 0.625 L 0.6875 0.625 L 0.6875 -12.3125 L 7.046875 -12.3125 C 7.828125 -12.3125 8.578125 -12.171875 9.296875 -11.890625 C 10.023438 -11.609375 10.671875 -11.195312 11.234375 -10.65625 C 11.796875 -10.113281 12.238281 -9.4375 12.5625 -8.625 C 12.894531 -7.8125 13.0625 -6.878906 13.0625 -5.828125 C 13.0625 -4.660156 12.894531 -3.664062 12.5625 -2.84375 C 12.226562 -2.019531 11.769531 -1.351562 11.1875 -0.84375 C 10.613281 -0.332031 9.960938 0.0351562 9.234375 0.265625 C 8.503906 0.503906 7.738281 0.625 6.9375 0.625 Z M 5.875 -3.65625 L 6.65625 -3.65625 C 6.75 -3.65625 6.863281 -3.675781 7 -3.71875 C 7.132812 -3.757812 7.269531 -3.851562 7.40625 -4 C 7.539062 -4.144531 7.648438 -4.359375 7.734375 -4.640625 C 7.828125 -4.929688 7.875 -5.328125 7.875 -5.828125 C 7.875 -6.347656 7.820312 -6.753906 7.71875 -7.046875 C 7.613281 -7.335938 7.488281 -7.550781 7.34375 -7.6875 C 7.195312 -7.832031 7.054688 -7.925781 6.921875 -7.96875 C 6.796875 -8.007812 6.707031 -8.03125 6.65625 -8.03125 L 5.875 -8.03125 Z M 5.875 -3.65625 "/></g></g></g><g fill="#ffffff" fill-opacity="1"><g transform="translate(57.024878, 19.794873)"><g><path d="M 11.34375 -8.109375 L 6.921875 -8.109375 C 6.890625 -8.304688 6.789062 -8.457031 6.625 -8.5625 C 6.457031 -8.675781 6.238281 -8.734375 5.96875 -8.734375 C 5.71875 -8.734375 5.519531 -8.703125 5.375 -8.640625 C 5.238281 -8.585938 5.171875 -8.476562 5.171875 -8.3125 C 5.171875 -8.050781 5.332031 -7.882812 5.65625 -7.8125 L 8.125 -7.21875 C 9.28125 -6.945312 10.148438 -6.46875 10.734375 -5.78125 C 11.316406 -5.101562 11.609375 -4.253906 11.609375 -3.234375 C 11.609375 -2.429688 11.425781 -1.707031 11.0625 -1.0625 C 10.707031 -0.425781 10.125 0.0703125 9.3125 0.4375 C 8.507812 0.8125 7.4375 1 6.09375 1 C 4.914062 1 3.890625 0.8125 3.015625 0.4375 C 2.148438 0.0703125 1.476562 -0.472656 1 -1.203125 C 0.53125 -1.929688 0.285156 -2.820312 0.265625 -3.875 L 4.765625 -3.875 C 4.796875 -3.644531 4.90625 -3.453125 5.09375 -3.296875 C 5.28125 -3.140625 5.515625 -3.0625 5.796875 -3.0625 C 6.140625 -3.0625 6.394531 -3.097656 6.5625 -3.171875 C 6.738281 -3.253906 6.828125 -3.398438 6.828125 -3.609375 C 6.828125 -3.773438 6.742188 -3.914062 6.578125 -4.03125 C 6.410156 -4.15625 6.132812 -4.253906 5.75 -4.328125 L 3.640625 -4.75 C 2.441406 -4.976562 1.601562 -5.429688 1.125 -6.109375 C 0.65625 -6.796875 0.421875 -7.675781 0.421875 -8.75 C 0.421875 -9.550781 0.625 -10.25 1.03125 -10.84375 C 1.445312 -11.4375 2.0625 -11.894531 2.875 -12.21875 C 3.6875 -12.550781 4.679688 -12.71875 5.859375 -12.71875 C 7.585938 -12.71875 8.925781 -12.34375 9.875 -11.59375 C 10.832031 -10.84375 11.320312 -9.679688 11.34375 -8.109375 Z M 11.34375 -8.109375 "/></g></g></g></svg>